<svg id="euro" xmlns="http://www.w3.org/2000/svg" viewBox="0 0 285 285"><title>Euro</title><path  d="M142.5,0C63.9,0,0,63.9,0,142.5S63.9,285,142.5,285,285,221.1,285,142.5,221.1,0,142.5,0Zm12.9,115.81a2.36,2.36,0,0,1,2.4,2.4v12.9a2.36,2.36,0,0,1-2.4,2.4H109.81a87.76,87.76,0,0,0-.61,9c0,3,.3,5.7.59,8.7h45.6a2.36,2.36,0,0,1,2.4,2.4v12.9a2.36,2.36,0,0,1-2.4,2.4H115.5c7.8,15.6,22.19,26.41,38.69,26.41,10.5,0,20.7-4.5,28.81-12.31a2.35,2.35,0,0,1,3.3,0l14.41,13.2a2.45,2.45,0,0,1,0,3.59c-12.91,12.91-29.41,20.1-46.5,20.1-29.7,0-55.2-21.3-65.1-51H72.3a2.36,2.36,0,0,1-2.4-2.4v-12.9a2.37,2.37,0,0,1,2.4-2.41H85.21a81.84,81.84,0,0,1-.6-8.69,79.25,79.25,0,0,1,.6-8.7H72.3a2.36,2.36,0,0,1-2.4-2.4v-12.9a2.37,2.37,0,0,1,2.4-2.4H89.11c9.9-29.7,35.1-51,65.1-51,17.4,0,33.9,7.19,46.5,20.09a2.74,2.74,0,0,1,0,3.6L186.3,102a2.35,2.35,0,0,1-3.3,0c-8.1-8.1-18.31-12.6-28.81-12.6-16.5,0-30.9,10.5-38.69,26.4Z"/></svg>