<svg id="instagram" viewBox="0 0 34 34"><title>Instagram</title><path d="M24.62,0H9.38A9.39,9.39,0,0,0,0,9.38V24.62A9.39,9.39,0,0,0,9.38,34H24.62A9.39,9.39,0,0,0,34,24.62V9.38A9.39,9.39,0,0,0,24.62,0Zm0,31H9.38A6.37,6.37,0,0,1,3,24.62V9.38A6.37,6.37,0,0,1,9.38,3H24.62A6.37,6.37,0,0,1,31,9.38V24.62h0A6.37,6.37,0,0,1,24.62,31ZM17,8.24A8.76,8.76,0,1,0,25.76,17,8.77,8.77,0,0,0,17,8.24Zm0,14.5A5.74,5.74,0,1,1,22.74,17,5.75,5.75,0,0,1,17,22.74ZM26.13,5.68a2.21,2.21,0,1,0,1.56.65A2.22,2.22,0,0,0,26.13,5.68Z" /></svg>