<svg id="cerroni-logo" xmlns="http://www.w3.org/2000/svg" viewBox="0 0 267.27 216"><title>Ceronni Logo</title><path d="M103,82.37h61.34a30.67,30.67,0,0,1-61.34,0Z"/><path fill="#f3a83d" d="M214.53,66.78H160.06A30.68,30.68,0,0,0,103,82.37H51.27A82.37,82.37,0,0,1,214.53,66.78Z"/><path d="M164.31,82.37a30.67,30.67,0,0,1-61.34,0Z"/><path fill="#ff7171" d="M216,82.42h-51.7a30.67,30.67,0,1,1-61.34,0H51.27a82.37,82.37,0,0,0,164.74,0Z"/><path fill="#122a2d" d="M133.63,113a30.67,30.67,0,0,0,30.68-30.66H103A30.66,30.66,0,0,0,133.63,113Z"/><path fill="#f7ecd5" d="M216,82.37a82.37,82.37,0,0,1-164.74,0H0a133.64,133.64,0,0,0,267.27,0Z"/></svg>