<svg id="cerroni-logomark" xmlns="http://www.w3.org/2000/svg" viewBox="0 0 413.37 109.49"><title>Caterina Cerroni!</title><path fill="#ff7171" d="M68.4,92.63c-4.94,0-8.69-4.42-8.69-10.19,0-6.45,3.9-10.35,8.69-10.35,4,0,7.2,2.63,8.25,7.2H95.31c-1.5-14.09-12.82-24-26.91-24-15.13,0-27.12,11.47-27.12,27.05,0,15.14,11.46,27.13,27.12,27.13a26.6,26.6,0,0,0,26.91-23.9H76.65C75.52,89.78,72.45,92.63,68.4,92.63Z"/><path fill="#ff7171" d="M141,72.47V56.73H97.33V108H141V92.26h-25V89.78h16.19V75H115.92V72.47Z"/><path fill="#ff7171" d="M184.87,93.68a20.51,20.51,0,0,0-12.3-37H144.32V108h18.59V97.73h4.19L175,108h19.93ZM168.31,82.21h-5.4V72.32h5.4a4.95,4.95,0,0,1,0,9.89Z"/><path fill="#ff7171" d="M237.55,93.68a20.51,20.51,0,0,0-12.29-37H197V108h18.58V97.73h4.2L227.66,108H247.6ZM221,82.21h-5.4V72.32H221a4.95,4.95,0,0,1,0,9.89Z"/><path fill="#ff7171" d="M274.5,55.31c-15.13,0-27.05,11.47-27.05,27.05,0,15.14,11.46,27.13,27.05,27.13s27.06-12,27.06-27.13C301.56,66.78,289.64,55.31,274.5,55.31Zm0,37.32c-4.94,0-8.62-4.42-8.62-10.19,0-6.45,3.83-10.35,8.62-10.35s8.62,3.9,8.62,10.35C283.12,88.21,279.45,92.63,274.5,92.63Z"/><path fill="#ff7171" d="M333,56.73V75.54L322.24,56.73H303.58l.08.15h-.08V108h18.59V89L333,108h18.51V56.73Z"/><path fill="#ff7171" d="M354.7,56.73V108h18.58V56.73Z"/><path fill="#f3a83d" d="M27.13,37.32c-4.94,0-8.69-4.42-8.69-10.19,0-6.45,3.89-10.34,8.69-10.34,4.05,0,7.19,2.62,8.24,7.19H54C52.54,9.89,41.22,0,27.13,0,12,0,0,11.47,0,27.06,0,42.19,11.47,54.19,27.13,54.19A26.59,26.59,0,0,0,54,30.28H35.37C34.25,34.48,31.18,37.32,27.13,37.32Z"/><path fill="#f3a83d" d="M89.93,1.42H66.55L49.76,52.69h19l1.57-5H86.11l1.5,5h19.11ZM75,32.23,78.17,22l3.15,10.27Z"/><path fill="#f3a83d" d="M99.23,1.42V17.91h13.49V52.69h18.51V17.91h13.49V1.42Z"/><path fill="#f3a83d" d="M191.26,17.16V1.42H147.64V52.69h43.62V37h-25V34.48h16.19V19.71H166.23V17.16Z"/><path fill="#f3a83d" d="M235.18,38.37A20.51,20.51,0,0,0,222.89,1.42H194.63V52.69h18.59V42.42h4.2l7.86,10.27h19.94ZM218.62,26.9h-5.4V17h5.4a4.95,4.95,0,0,1,0,9.89Z"/><path fill="#f3a83d" d="M245.9,1.42V52.69h18.58V1.42Z"/><path fill="#f3a83d" d="M298.13,1.42V20.24L287.42,1.42H268.76l.07.16h-.07V52.69h18.58v-19l10.79,19h18.52V1.42Z"/><path fill="#f3a83d" d="M356.81,1.42H333.43L316.65,52.69h19l1.58-5H353l1.5,5H373.6ZM341.9,32.23,345.05,22l3.14,10.27Z"/><polygon fill="#ff7171" points="381.32 95 400.87 95 396.59 107.99 377.04 107.99 381.32 95"/><polygon fill="#ff7171" points="413.37 56.73 402.28 90.63 382.73 90.63 393.82 56.73 413.37 56.73"/></svg>